<?xml version="1.0" standalone="no"?>
<!DOCTYPE svg PUBLIC "-//W3C//DTD SVG 20010904//EN"
 "http://www.w3.org/TR/2001/REC-SVG-20010904/DTD/svg10.dtd">
<svg version="1.0" xmlns="http://www.w3.org/2000/svg"
 width="512.000000pt" height="512.000000pt" viewBox="0 0 512.000000 512.000000"
 preserveAspectRatio="xMidYMid meet">

<g transform="translate(0.000000,512.000000) scale(0.100000,-0.100000)"
fill="#000000" stroke="none">
<path d="M195 5102 c-35 -11 -67 -33 -105 -72 -99 -99 -90 159 -90 -2470 0
-2629 -9 -2371 90 -2471 97 -97 -18 -90 1405 -87 l1240 3 57 28 c65 32 118 90
145 158 16 39 18 97 21 531 2 269 5 488 7 488 2 0 68 -31 147 -69 167 -81 209
-114 263 -207 117 -202 323 -303 533 -262 69 14 119 36 339 151 281 147 297
160 273 218 -14 32 -37 49 -68 49 -11 0 -131 -58 -267 -129 -137 -72 -271
-135 -298 -142 -68 -16 -150 -5 -224 31 -69 34 -109 74 -155 158 -18 31 -60
85 -95 120 -61 62 -74 69 -675 366 -658 325 -669 331 -684 413 -9 48 10 118
43 162 34 44 104 75 154 68 22 -3 133 -55 261 -123 138 -72 234 -117 252 -117
35 0 66 34 66 72 0 16 -147 308 -362 716 -199 380 -368 708 -375 730 -53 148
122 310 254 236 21 -12 48 -36 60 -54 12 -18 164 -304 338 -637 174 -333 326
-615 338 -627 34 -38 96 -23 117 28 11 25 6 39 -50 151 -35 68 -66 128 -70
133 -5 6 -11 27 -15 48 -15 79 60 188 140 203 47 8 110 0 139 -20 13 -8 56
-77 96 -153 40 -76 80 -146 88 -155 20 -23 74 -23 103 0 36 30 27 66 -55 222
-42 79 -76 155 -76 169 0 42 39 107 81 137 54 37 138 44 189 16 28 -16 48 -44
107 -157 39 -75 80 -146 89 -156 39 -43 124 -10 124 47 0 15 -34 91 -75 169
-82 155 -87 181 -55 245 54 105 220 131 298 47 25 -26 291 -533 362 -686 88
-193 151 -372 219 -623 22 -82 59 -192 82 -245 25 -59 43 -120 46 -153 10
-108 -47 -233 -134 -293 -67 -46 -83 -64 -83 -91 0 -35 40 -78 73 -79 66 0
195 119 246 227 71 149 67 285 -13 456 -19 42 -49 129 -66 195 -87 332 -179
570 -347 895 -216 421 -243 469 -296 516 -157 141 -428 90 -521 -99 l-26 -51
-102 0 c-88 -1 -110 -4 -153 -26 -63 -30 -134 -101 -161 -159 l-21 -45 -104 0
c-93 -1 -110 -4 -161 -29 -32 -16 -75 -48 -97 -74 l-40 -45 -3 998 -3 999 -28
57 c-34 69 -91 121 -164 148 -52 19 -77 20 -961 20 -987 0 -942 3 -956 -55
l-6 -25 -135 0 c-115 0 -135 2 -135 15 0 9 -11 27 -25 40 -23 24 -29 25 -162
24 -100 0 -152 -5 -188 -17z m2613 -1287 c1 -384 -1 -635 -7 -630 -5 6 -48 84
-95 174 l-86 163 0 250 c0 270 -1 278 -57 330 -15 15 -41 32 -56 37 -19 8
-346 11 -1030 11 -963 0 -1004 -1 -1044 -19 -26 -12 -52 -35 -70 -62 l-28 -43
0 -320 c0 -318 0 -321 23 -358 13 -20 40 -47 60 -60 l37 -23 772 -3 771 -2
258 -493 c141 -270 273 -521 292 -556 l36 -64 -100 52 c-54 29 -121 61 -149
70 -49 18 -50 19 -57 68 -12 80 -54 202 -99 283 -29 53 -71 104 -139 171 -86
86 -108 103 -201 147 -142 69 -216 86 -364 85 -191 -1 -342 -52 -490 -166
-135 -104 -246 -269 -292 -437 -24 -90 -25 -309 0 -400 76 -282 293 -501 574
-582 101 -30 312 -32 413 -4 100 27 238 98 315 163 l70 59 210 -106 c115 -58
283 -141 373 -183 l163 -76 -3 -148 -3 -148 -1327 -3 -1328 -2 0 1735 0 1735
1328 -2 1327 -3 3 -640z m-354 179 c13 -5 16 -26 16 -125 l0 -119 -37 24 c-79
52 -212 60 -305 18 -54 -23 -122 -82 -154 -133 -32 -51 -57 -142 -52 -195 l3
-44 -717 0 -718 0 0 284 c0 218 3 286 13 289 18 8 1932 8 1951 1z m-809 -1141
c215 -53 395 -231 464 -457 33 -106 30 -116 -34 -150 -61 -32 -113 -84 -147
-148 -19 -36 -23 -58 -23 -143 0 -84 4 -107 23 -145 l23 -45 -49 -45 c-57 -53
-161 -110 -247 -136 -44 -14 -92 -18 -180 -18 -103 0 -132 4 -202 28 -374 123
-557 549 -388 904 137 289 447 434 760 355z m68 -2312 c30 -12 42 -43 27 -71
-10 -19 -19 -20 -259 -20 -267 0 -276 2 -269 52 6 42 38 48 265 48 116 0 223
-4 236 -9z"/>
<path d="M1840 2562 c-8 -2 -129 -117 -267 -255 l-253 -252 -87 87 c-49 47
-98 91 -110 97 -27 14 -65 1 -87 -31 -32 -45 -22 -64 102 -190 115 -118 153
-148 189 -148 19 0 600 574 609 602 13 42 -52 104 -96 90z"/>
</g>
</svg>
